<svg width="104" height="104" viewBox="0 0 104 104" fill="none" xmlns="http://www.w3.org/2000/svg">
<path fill-rule="evenodd" clip-rule="evenodd" d="M52 104C80.7186 104 104 80.7186 104 52C104 23.2812 80.7186 0 52 0C23.2812 0 0 23.2812 0 52C0 80.7186 23.2812 104 52 104ZM59.9 20.4C59.9 18.1909 58.1091 16.4 55.9 16.4H48.1C45.8909 16.4 44.1 18.1909 44.1 20.4V40.1C44.1 42.3091 42.3091 44.1 40.1 44.1H20.4C18.1909 44.1 16.4 45.8909 16.4 48.1V55.9C16.4 58.1091 18.1909 59.9 20.4 59.9H40.1C42.3091 59.9 44.1 61.6909 44.1 63.9V83.6C44.1 85.8091 45.8909 87.6 48.1 87.6H55.9C58.1091 87.6 59.9 85.8091 59.9 83.6V63.9C59.9 61.6909 61.6909 59.9 63.9 59.9H83.6C85.8091 59.9 87.6 58.1091 87.6 55.9V48.1C87.6 45.8909 85.8091 44.1 83.6 44.1H63.9C61.6909 44.1 59.9 42.3091 59.9 40.1V20.4Z" fill="#E5E7EB"/>
</svg>
