<svg width="104" height="104" viewBox="0 0 104 104" fill="none" xmlns="http://www.w3.org/2000/svg">
<path d="M30 49.2941C30 38.3132 30 32.8227 33.3976 29.4113C36.7951 26 42.2634 26 53.2 26H64.8C75.7365 26 81.2047 26 84.6024 29.4113C88 32.8227 88 38.3132 88 49.2941V68.7059C88 79.6867 88 85.1772 84.6024 88.5886C81.2047 92 75.7365 92 64.8 92H53.2C42.2634 92 36.7951 92 33.3976 88.5886C30 85.1772 30 79.6867 30 68.7059V49.2941Z" stroke="#E5E7EB" stroke-width="9.5"/>
<path d="M26.8 78C20.2831 78 15 72.7856 15 66.3529V43.0588C15 28.4175 15 21.0969 19.6082 16.5484C24.2164 12 31.6331 12 46.4667 12H62.2C68.7171 12 74 17.2146 74 23.6471" stroke="#E5E7EB" stroke-width="9.5"/>
</svg>
