<svg width="104" height="104" viewBox="0 0 104 104" fill="none" xmlns="http://www.w3.org/2000/svg">
<rect x="13.2712" y="27.2002" width="46.0585" height="52.3037" rx="3" fill="#D9D9D9"/>
<circle cx="36.3005" cy="26.0292" r="23.0292" fill="#D9D9D9"/>
<rect y="27.9809" width="25.7615" height="38.2519" rx="11" fill="#D9D9D9"/>
<rect x="13.2712" y="67.0135" width="15.613" height="34.3487" rx="4" fill="#D9D9D9"/>
<rect x="44.4968" y="67.0135" width="14.8324" height="34.3487" rx="4" fill="#D9D9D9"/>
<circle cx="16.0032" cy="71.307" r="10.5388" fill="#D9D9D9"/>
<ellipse cx="48.4003" cy="35.0067" rx="19.5163" ry="18.7356" fill="#D9D9D9"/>
<path d="M96.2571 29.0877C97.0534 28.4916 98.1802 28.642 98.7924 29.4259V29.4259C99.1693 29.9084 99.2794 30.5476 99.0858 31.1284L98.4319 33.0905C98.3468 33.3457 98.2438 33.5946 98.1235 33.8352L97.8657 34.3507C97.4313 35.2195 96.9064 36.0399 96.2996 36.7984L92.845 41.1167L88.4776 45.4841L79.7429 54.2188L72.3579 59.9627C70.9631 61.0475 68.9787 60.924 67.7292 59.6745V59.6745C66.4827 58.428 64.5041 58.3017 63.1092 59.3796L43.2584 74.7188C42.2795 75.4752 40.8848 75.3581 40.0458 74.4489V74.4489C39.0864 73.4093 39.2369 71.768 40.3695 70.9203L96.2571 29.0877Z" fill="#D9D9D9"/>
</svg>
