<svg width="104" height="104" viewBox="0 0 104 104" fill="none" xmlns="http://www.w3.org/2000/svg">
<path d="M53.7879 53.3459L88.8182 39.5181V62.5084C86.7366 61.1931 84.2614 60.4306 81.6061 60.4306C74.2089 60.4306 68.2121 66.3484 68.2121 73.6483C68.2121 80.9481 74.2089 86.866 81.6061 86.866C89.0032 86.866 95 80.9481 95 73.6483V34.7933C95 30.1454 95 26.2473 94.6687 23.1416C94.6217 22.7027 94.5664 22.2663 94.5054 21.8591C94.1861 19.7373 93.6219 17.7579 92.533 16.105C91.9886 15.2786 91.3128 14.5338 90.4712 13.8936C90.3134 13.7735 90.1493 13.6572 89.98 13.5447L89.9457 13.5222C87.0312 11.608 83.7544 11.7448 80.3792 12.5937C77.1148 13.4146 73.0677 15.0862 68.105 17.1362L59.4752 20.7007C57.1487 21.6614 55.178 22.4754 53.6313 23.3185C51.9853 24.2154 50.5676 25.2734 49.5043 26.8499C48.4414 28.4264 47.9996 30.1254 47.7969 31.9699C47.6061 33.7036 47.6061 35.8119 47.6061 38.3004V70.6424C45.524 69.3271 43.0492 68.5646 40.3939 68.5646C32.9967 68.5646 27 74.4824 27 81.7823C27 89.0821 32.9967 95 40.3939 95C47.7911 95 53.7879 89.0821 53.7879 81.7823V53.3459Z" fill="#E5E7EB"/>
<path opacity="0.5" d="M33.6842 10.06C33.6842 8.37002 32.3057 7 30.6053 7C28.9048 7 27.5263 8.37002 27.5263 10.06V33.5645C25.4525 32.245 22.9872 31.48 20.3421 31.48C12.9734 31.48 7 37.4167 7 44.74C7 52.0632 12.9734 58 20.3421 58C27.7108 58 33.6842 52.0632 33.6842 44.74V22.3184C36.5518 24.3772 39.9634 25.36 42.9211 25.36C44.6215 25.36 46 23.99 46 22.3C46 20.61 44.6215 19.24 42.9211 19.24C41.0558 19.24 38.6774 18.5215 36.8107 16.9893C35.0324 15.5297 33.6842 13.3152 33.6842 10.06Z" fill="#E5E7EB"/>
</svg>
