<svg width="104" height="104" viewBox="0 0 104 104" fill="none" xmlns="http://www.w3.org/2000/svg">
<path fill-rule="evenodd" clip-rule="evenodd" d="M52 3C79.0627 3 101 25.4906 101 53.2393C101 75.4314 86.9762 94.2573 67.5183 100.907C65.034 101.401 64.152 99.8326 64.152 98.4949C64.152 96.8387 64.2108 91.4292 64.2108 84.7064C64.2108 80.0221 62.6428 76.9647 60.8837 75.4065C71.796 74.1619 83.262 69.9132 83.262 50.617C83.262 45.129 81.3608 40.6507 78.215 37.1325C78.7246 35.8634 80.4053 30.7533 77.7348 23.8345C77.7348 23.8345 73.6286 22.4884 64.2745 28.9858C60.3594 27.8735 56.165 27.3138 52 27.2942C47.835 27.3138 43.6455 27.8735 39.7353 28.9858C30.3714 22.4884 26.2554 23.8345 26.2554 23.8345C23.5947 30.7533 25.2754 35.8634 25.7801 37.1325C22.649 40.6507 20.7331 45.129 20.7331 50.617C20.7331 69.8642 32.1746 74.1781 43.0575 75.4472C41.6561 76.7016 40.387 78.9144 39.946 82.1631C37.153 83.4469 30.0578 85.6688 25.687 77.9905C25.687 77.9905 23.0949 73.1634 18.1753 72.8106C18.1753 72.8106 13.3978 72.7471 17.8421 75.8635C17.8421 75.8635 21.0516 77.407 23.2811 83.2135C23.2811 83.2135 26.1574 92.1803 39.7892 89.1423C39.8137 93.3416 39.8578 97.2993 39.8578 98.4949C39.8578 99.8228 38.9562 101.377 36.5111 100.911C17.0385 94.2719 3 75.4363 3 53.2393C3 25.4906 24.9422 3 52 3Z" fill="#E5E7EB"/>
</svg>
