<svg width="104" height="104" viewBox="0 0 104 104" fill="none" xmlns="http://www.w3.org/2000/svg">
<path d="M100.006 1.24825C102.213 1.29006 103.969 3.11111 103.93 5.31773L102.973 59.8132C102.911 63.3512 98.6236 65.072 96.1328 62.5586L78.8871 45.1563C77.3221 43.5771 74.7697 43.5771 73.2047 45.1563L17.7316 101.133C16.1666 102.712 13.6142 102.712 12.0492 101.133L2.79029 91.7901C1.2452 90.2309 1.2452 87.7179 2.7903 86.1588L58.3653 30.0795C59.9104 28.5204 59.9104 26.0074 58.3653 24.4483L41.0757 7.00167C38.5476 4.45064 40.4018 0.11872 43.9927 0.186768L100.006 1.24825Z" fill="#E5E7EB"/>
</svg>
