<svg width="104" height="104" viewBox="0 0 104 104" fill="none" xmlns="http://www.w3.org/2000/svg">
<path d="M48.808 1.73388C49.5542 0.648467 50.7869 0 52.1041 0H57.5C59.7091 0 61.5 1.79086 61.5 4V100C61.5 102.209 59.7091 104 57.5 104H52.1155C50.792 104 49.5542 103.345 48.8093 102.251L25.1907 67.5668C24.4458 66.4728 23.208 65.8182 21.8845 65.8182H4C1.79086 65.8182 0 64.0273 0 61.8182V41.8182C0 39.609 1.79086 37.8182 4 37.8182H21.8959C23.2131 37.8182 24.4458 37.1697 25.192 36.0843L48.808 1.73388Z" fill="#E5E7EB"/>
</svg>
