<svg width="104" height="104" viewBox="0 0 104 104" fill="none" xmlns="http://www.w3.org/2000/svg">
<path d="M48.808 1.73388C49.5542 0.648467 50.7869 0 52.1041 0H57.5C59.7091 0 61.5 1.79086 61.5 4V100C61.5 102.209 59.7091 104 57.5 104H52.1155C50.792 104 49.5542 103.345 48.8093 102.251L25.1907 67.5668C24.4458 66.4728 23.208 65.8182 21.8845 65.8182H4C1.79086 65.8182 0 64.0273 0 61.8182V41.8182C0 39.609 1.79086 37.8182 4 37.8182H21.8959C23.2131 37.8182 24.4458 37.1697 25.192 36.0843L48.808 1.73388Z" fill="#E5E7EB"/>
<path d="M76.7125 32.0828C78.1325 30.3906 80.6791 30.1538 82.1676 31.7862C84.2315 34.0496 85.9419 36.6216 87.2333 39.4164C89.0856 43.4252 90.0301 47.7935 89.9993 52.2095C89.9684 56.6254 88.9631 60.9801 87.055 64.9626C85.7247 67.7391 83.9785 70.287 81.8832 72.5213C80.3721 74.1328 77.829 73.8605 76.4327 72.1486L75.8134 71.3891C74.4171 69.6772 74.7096 67.1773 76.1266 65.4824C77.2461 64.1433 78.1979 62.6659 78.9565 61.0825C80.2935 58.292 80.9979 55.2409 81.0195 52.1468C81.0411 49.0527 80.3794 45.9919 79.0815 43.1831C78.345 41.5892 77.414 40.0987 76.3133 38.7441C74.9201 37.0296 74.6626 34.5259 76.0826 32.8336L76.7125 32.0828Z" fill="#E5E7EB"/>
<path d="M86.7652 22.2742C88.2434 20.6325 90.788 20.4884 92.2887 22.1095C95.6445 25.7346 98.3725 29.9061 100.35 34.4536C102.86 40.2265 104.103 46.4708 103.993 52.7648C103.884 59.0589 102.425 65.2562 99.7157 70.9383C97.5814 75.4144 94.71 79.4886 91.2302 82.9948C89.674 84.5628 87.136 84.3303 85.7158 82.6382L85.3039 82.1475C83.8837 80.4554 84.1234 77.9466 85.6443 76.3444C88.1956 73.6569 90.3143 70.5789 91.9164 67.2192C94.0938 62.653 95.266 57.6727 95.354 52.6146C95.4419 47.5566 94.4435 42.5385 92.4261 37.8994C90.9418 34.486 88.9313 31.3362 86.4751 28.5617C85.0107 26.9076 84.8583 24.392 86.3365 22.7503L86.7652 22.2742Z" fill="#E5E7EB"/>
</svg>
